<svg width="151" height="131" viewBox="0 0 151 131" fill="none" xmlns="http://www.w3.org/2000/svg">
<rect x="127.653" y="1.94482" width="105" height="105" transform="rotate(90 127.653 1.94482)" fill="black"/>
<path d="M94.4039 7.25269C94.5389 16.9167 86.8142 24.8605 77.1501 24.9955V24.9955C67.4861 25.1306 59.5424 17.4058 59.4073 7.7418L59.3165 1.24243L94.313 0.75332L94.4039 7.25269Z" fill="white"/>
<path d="M133.167 30.7432C142.832 30.7432 150.667 38.5782 150.667 48.2432V48.2432C150.667 57.9081 142.832 65.7432 133.167 65.7432H126.667V30.7432H133.167Z" fill="black"/>
<path d="M94.0608 112.622C94.0272 122.287 86.165 130.094 76.5001 130.061V130.061C66.8352 130.027 59.0274 122.165 59.061 112.5L59.0836 106L94.0834 106.122L94.0608 112.622Z" fill="black"/>
<path d="M17.5 66C7.83502 66 0 58.165 0 48.5V48.5C0 38.835 7.83502 31 17.5 31L24 31L24 66H17.5Z" fill="black"/>
</svg>
